<svg width="24" height="24" viewBox="0 0 24 24" fill="none" xmlns="http://www.w3.org/2000/svg">
<path d="M10.0781 15.6094L12.6562 12.9844H3V11.0156H12.6562L10.0781 8.39062L11.4844 6.98438L16.5 12L11.4844 17.0156L10.0781 15.6094ZM18.9844 3C19.5469 3 20.0234 3.19531 20.4141 3.58594C20.8047 3.97656 21 4.45312 21 5.01562V18.9844C21 19.5469 20.8047 20.0234 20.4141 20.4141C20.0234 20.8047 19.5469 21 18.9844 21H5.01562C4.45312 21 3.97656 20.8047 3.58594 20.4141C3.19531 20.0234 3 19.5469 3 18.9844V15H5.01562V18.9844H18.9844V5.01562H5.01562V9H3V5.01562C3 4.45312 3.19531 3.97656 3.58594 3.58594C3.97656 3.19531 4.45312 3 5.01562 3H18.9844Z" fill="#ffffff"/>
</svg>
